<svg width="264" height="41" viewBox="0 0 264 41" fill="none" xmlns="http://www.w3.org/2000/svg">
<path d="M9.28 4.28C7.6 4.33333 6.30667 4.97333 5.4 6.2C4.52 7.42667 4.08 9.54667 4.08 12.56C4.08 13.5467 4.17333 14.24 4.36 14.64C4.54667 15.0133 4.64 15.2267 4.64 15.28C3.2 15.28 2.12 14.9867 1.4 14.4C0.706667 13.7867 0.36 12.7867 0.36 11.4C0.36 9.50667 0.826667 7.78667 1.76 6.24C2.69333 4.66667 4.17333 3.4 6.2 2.44C8.25333 1.48 10.8533 0.999998 14 0.999998C14.64 0.999998 15.4933 1.06666 16.56 1.2C18.48 1.38666 19.84 1.48 20.64 1.48C22.0533 1.48 23.2533 1.32 24.24 0.999998C24.16 1.24 24.0133 1.77333 23.8 2.6C23.5867 3.4 23.2 4.09333 22.64 4.68C22.1067 5.24 21.3733 5.61333 20.44 5.8C18.8667 5.8 17 5.54666 14.84 5.04L13.16 13H19L18.36 15.96H12.52L9.28 31H3.52L9.28 4.28ZM24.0794 31.24C22.106 31.24 20.5727 30.7333 19.4794 29.72C18.386 28.68 17.8394 27.0667 17.8394 24.88C17.8394 23.04 18.1994 21.0133 18.9194 18.8C19.6394 16.5867 20.8127 14.68 22.4394 13.08C24.066 11.4533 26.1327 10.64 28.6394 10.64C31.5727 10.64 33.0394 11.92 33.0394 14.48C33.0394 15.9733 32.6127 17.3467 31.7594 18.6C30.906 19.8533 29.7727 20.8667 28.3594 21.64C26.946 22.3867 25.4394 22.8133 23.8394 22.92C23.786 23.72 23.7594 24.2533 23.7594 24.52C23.7594 25.8267 23.986 26.72 24.4394 27.2C24.8927 27.6533 25.626 27.88 26.6394 27.88C28.0794 27.88 29.306 27.5467 30.3194 26.88C31.3594 26.2133 32.4927 25.2 33.7194 23.84H35.0794C32.1194 28.7733 28.4527 31.24 24.0794 31.24ZM24.1594 21C25.146 20.9467 26.0794 20.6 26.9594 19.96C27.866 19.32 28.586 18.5067 29.1194 17.52C29.6794 16.5333 29.9594 15.4933 29.9594 14.4C29.9594 13.3067 29.626 12.76 28.9594 12.76C27.9994 12.76 27.0527 13.6 26.1194 15.28C25.2127 16.96 24.5594 18.8667 24.1594 21ZM39.4309 31.24C37.4576 31.24 35.9243 30.7333 34.8309 29.72C33.7376 28.68 33.1909 27.0667 33.1909 24.88C33.1909 23.04 33.5509 21.0133 34.2709 18.8C34.9909 16.5867 36.1643 14.68 37.7909 13.08C39.4176 11.4533 41.4843 10.64 43.9909 10.64C46.9243 10.64 48.3909 11.92 48.3909 14.48C48.3909 15.9733 47.9643 17.3467 47.1109 18.6C46.2576 19.8533 45.1243 20.8667 43.7109 21.64C42.2976 22.3867 40.7909 22.8133 39.1909 22.92C39.1376 23.72 39.1109 24.2533 39.1109 24.52C39.1109 25.8267 39.3376 26.72 39.7909 27.2C40.2443 27.6533 40.9776 27.88 41.9909 27.88C43.4309 27.88 44.6576 27.5467 45.6709 26.88C46.7109 26.2133 47.8443 25.2 49.0709 23.84H50.4309C47.4709 28.7733 43.8043 31.24 39.4309 31.24ZM39.5109 21C40.4976 20.9467 41.4309 20.6 42.3109 19.96C43.2176 19.32 43.9376 18.5067 44.4709 17.52C45.0309 16.5333 45.3109 15.4933 45.3109 14.4C45.3109 13.3067 44.9776 12.76 44.3109 12.76C43.3509 12.76 42.4043 13.6 41.4709 15.28C40.5643 16.96 39.9109 18.8667 39.5109 21ZM53.8625 31.24C52.3425 31.24 51.0758 30.72 50.0625 29.68C49.0492 28.64 48.5425 27.0133 48.5425 24.8C48.5425 22.8267 48.9292 20.76 49.7025 18.6C50.5025 16.4133 51.6758 14.5733 53.2225 13.08C54.7958 11.56 56.6625 10.8 58.8225 10.8C59.9158 10.8 60.7292 10.9867 61.2625 11.36C61.7958 11.7333 62.0625 12.2267 62.0625 12.84V13L64.0225 3.8L69.9425 3L65.3425 24.6C65.2358 25 65.1825 25.4267 65.1825 25.88C65.1825 26.4133 65.3025 26.8 65.5425 27.04C65.8092 27.2533 66.2358 27.36 66.8225 27.36C67.5692 27.36 68.2092 27.04 68.7425 26.4C69.3025 25.76 69.7425 24.9067 70.0625 23.84H71.7425C70.1158 28.6133 67.4358 31 63.7025 31C62.6092 31 61.7158 30.7067 61.0225 30.12C60.3558 29.5333 59.9425 28.68 59.7825 27.56C59.0892 28.6267 58.2492 29.5067 57.2625 30.2C56.3025 30.8933 55.1692 31.24 53.8625 31.24ZM56.4625 27.36C57.1025 27.36 57.7425 27.0667 58.3825 26.48C59.0492 25.8933 59.5025 25.08 59.7425 24.04V23.84L61.7025 14.68C61.4625 13.7467 60.9158 13.28 60.0625 13.28C58.9958 13.28 58.0358 13.9067 57.1825 15.16C56.3292 16.3867 55.6625 17.88 55.1825 19.64C54.7025 21.3733 54.4625 22.9067 54.4625 24.24C54.4625 25.5733 54.6492 26.4267 55.0225 26.8C55.4225 27.1733 55.9025 27.36 56.4625 27.36ZM75.3981 31.24C73.5848 31.24 72.1981 30.8 71.2381 29.92C70.2781 29.0133 69.7981 27.7467 69.7981 26.12C69.7981 25.32 69.8915 24.56 70.0781 23.84L74.3581 3.8L80.2781 3L78.3581 12C79.1048 11.5467 79.7181 11.2533 80.1981 11.12C80.6781 10.96 81.1581 10.88 81.6381 10.88C84.7848 10.88 86.3581 13.16 86.3581 17.72C86.3581 19.56 85.9981 21.5333 85.2781 23.64C84.5848 25.72 83.4115 27.5067 81.7581 29C80.1315 30.4933 78.0115 31.24 75.3981 31.24ZM77.6381 27.36C78.4648 27.36 79.2381 26.8533 79.9581 25.84C80.6781 24.8 81.2515 23.52 81.6781 22C82.1048 20.4533 82.3181 18.9733 82.3181 17.56C82.3181 16.4933 82.1315 15.5867 81.7581 14.84C81.3848 14.0933 80.8648 13.72 80.1981 13.72C79.7981 13.72 79.3448 13.7867 78.8381 13.92C78.3581 14.0267 78.0248 14.2 77.8381 14.44L75.6381 24.6C75.5581 24.92 75.5181 25.2267 75.5181 25.52C75.5181 26.7467 76.2248 27.36 77.6381 27.36ZM92.6516 31.24C91.1316 31.24 89.8649 30.72 88.8516 29.68C87.8382 28.64 87.3316 27.0133 87.3316 24.8C87.3316 22.8267 87.7182 20.76 88.4916 18.6C89.2916 16.4133 90.4649 14.5733 92.0116 13.08C93.5849 11.56 95.4516 10.8 97.6116 10.8C98.7049 10.8 99.5182 10.9867 100.052 11.36C100.585 11.7333 100.852 12.2267 100.852 12.84V13.12L101.292 11H107.052L104.172 24.6C104.065 25 104.012 25.4267 104.012 25.88C104.012 27.0267 104.558 27.6 105.652 27.6C106.398 27.6 107.038 27.2533 107.572 26.56C108.132 25.8667 108.572 24.96 108.892 23.84H110.572C109.585 26.72 108.358 28.68 106.892 29.72C105.452 30.7333 103.998 31.24 102.532 31.24C101.412 31.24 100.505 30.9333 99.8116 30.32C99.1449 29.68 98.7449 28.76 98.6116 27.56C97.8382 28.6533 96.9716 29.5467 96.0116 30.24C95.0782 30.9067 93.9582 31.24 92.6516 31.24ZM95.2516 27.36C95.9182 27.36 96.5716 27.0533 97.2116 26.44C97.8782 25.8 98.3316 24.9333 98.5716 23.84L100.492 14.8C100.492 14.4533 100.358 14.12 100.092 13.8C99.8249 13.4533 99.4116 13.28 98.8516 13.28C97.7849 13.28 96.8249 13.9067 95.9716 15.16C95.1182 16.3867 94.4516 17.88 93.9716 19.64C93.4916 21.3733 93.2516 22.9067 93.2516 24.24C93.2516 25.5733 93.4382 26.4267 93.8116 26.8C94.2116 27.1733 94.6916 27.36 95.2516 27.36ZM114.626 31.24C112.653 31.24 111.12 30.7333 110.026 29.72C108.933 28.68 108.386 27.0667 108.386 24.88C108.386 23.04 108.746 21.0133 109.466 18.8C110.213 16.5867 111.386 14.68 112.986 13.08C114.613 11.4533 116.666 10.64 119.146 10.64C120.746 10.64 121.88 10.9867 122.546 11.68C123.24 12.3733 123.586 13.2533 123.586 14.32C123.586 15.2533 123.386 15.9733 122.986 16.48C122.586 16.9867 122.08 17.24 121.466 17.24C121.013 17.24 120.546 17.08 120.066 16.76C120.386 15.88 120.546 15.0933 120.546 14.4C120.546 13.8933 120.453 13.4933 120.266 13.2C120.08 12.9067 119.8 12.76 119.426 12.76C118.626 12.76 117.826 13.4133 117.026 14.72C116.226 16.0267 115.573 17.6133 115.066 19.48C114.56 21.3467 114.306 23.0267 114.306 24.52C114.306 25.8267 114.533 26.72 114.986 27.2C115.44 27.6533 116.173 27.88 117.186 27.88C118.626 27.88 119.853 27.5467 120.866 26.88C121.906 26.2133 123.04 25.2 124.266 23.84H125.626C122.666 28.7733 119 31.24 114.626 31.24ZM139.298 31.24C137.644 31.24 136.391 30.8533 135.538 30.08C134.684 29.28 134.258 28.1467 134.258 26.68C134.258 26.04 134.338 25.3467 134.498 24.6L134.818 23.04C134.924 22.5867 134.978 22.0933 134.978 21.56C134.978 20.28 134.498 19.64 133.538 19.64C133.111 19.64 132.658 19.76 132.178 20C131.724 20.24 131.191 20.6133 130.578 21.12L128.498 31H122.738L128.538 3.8L134.458 3L131.458 17.08L139.178 11H143.138L135.138 16.56C135.538 16.4533 135.978 16.4 136.458 16.4C137.898 16.4 138.991 16.84 139.738 17.72C140.484 18.6 140.858 19.72 140.858 21.08C140.858 21.64 140.804 22.1467 140.698 22.6L140.258 24.6C140.124 25.08 140.058 25.5067 140.058 25.88C140.058 26.8667 140.578 27.36 141.618 27.36C142.204 27.36 142.578 27.32 142.738 27.24C142.898 27.16 142.991 27.12 143.018 27.12C142.964 28 142.711 28.7467 142.258 29.36C141.831 29.9733 141.324 30.44 140.738 30.76C140.178 31.08 139.698 31.24 139.298 31.24ZM161.597 31.72C159.917 31.72 158.437 31.4267 157.157 30.84C155.877 30.2533 154.89 29.44 154.197 28.4C153.504 27.3333 153.157 26.1067 153.157 24.72C153.157 23.5467 153.397 22.48 153.877 21.52C154.384 20.56 155.05 19.8 155.877 19.24C156.73 18.68 157.664 18.4 158.677 18.4C159.61 18.4 160.397 18.64 161.037 19.12C161.677 19.5733 162.077 20.2133 162.237 21.04C160.85 21.04 159.744 21.4133 158.917 22.16C158.09 22.88 157.677 23.8667 157.677 25.12C157.677 26.2667 158.024 27.1867 158.717 27.88C159.41 28.5733 160.33 28.92 161.477 28.92C162.89 28.92 164.05 28.4533 164.957 27.52C165.89 26.56 166.357 25.36 166.357 23.92C166.357 22.6667 166.01 21.48 165.317 20.36C164.624 19.24 163.584 17.88 162.197 16.28C160.757 14.6267 159.664 13.2133 158.917 12.04C158.197 10.84 157.837 9.53333 157.837 8.12C157.837 6.73333 158.224 5.49333 158.997 4.4C159.77 3.28 160.837 2.4 162.197 1.76C163.557 1.12 165.09 0.799998 166.797 0.799998C168.957 0.799998 170.677 1.30667 171.957 2.32C173.264 3.33333 173.917 4.69333 173.917 6.4C173.917 7.52 173.637 8.42667 173.077 9.12C172.517 9.81333 171.784 10.16 170.877 10.16C169.864 10.16 169.05 9.74667 168.437 8.92C168.944 8.54666 169.344 8.05333 169.637 7.44C169.93 6.82666 170.077 6.18667 170.077 5.52C170.077 4.66667 169.824 3.98667 169.317 3.48C168.81 2.97333 168.117 2.72 167.237 2.72C166.17 2.72 165.29 3.10667 164.597 3.88C163.93 4.62667 163.597 5.58667 163.597 6.76C163.597 7.82667 163.904 8.82667 164.517 9.76C165.13 10.6667 166.09 11.84 167.397 13.28C168.464 14.4267 169.317 15.4133 169.957 16.24C170.624 17.0667 171.184 18.0267 171.637 19.12C172.117 20.1867 172.357 21.3467 172.357 22.6C172.357 24.3067 171.877 25.8533 170.917 27.24C169.984 28.6267 168.69 29.72 167.037 30.52C165.41 31.32 163.597 31.72 161.597 31.72ZM180.849 41C179.569 41 178.503 40.6667 177.649 40C176.796 39.3333 176.369 38.3733 176.369 37.12C176.369 35.6 176.983 34.3733 178.209 33.44C179.436 32.5333 180.996 31.7733 182.889 31.16L183.369 29C182.596 29.8533 181.809 30.44 181.009 30.76C180.209 31.08 179.396 31.24 178.569 31.24C177.289 31.24 176.249 30.84 175.449 30.04C174.676 29.24 174.289 28.04 174.289 26.44C174.289 25.7733 174.396 24.9067 174.609 23.84L177.329 11H183.089L180.209 24.6C180.129 24.92 180.089 25.2533 180.089 25.6C180.089 26.7733 180.489 27.36 181.289 27.36C181.983 27.36 182.596 27.0667 183.129 26.48C183.663 25.8667 184.089 25.0667 184.409 24.08L187.209 11H192.969L189.009 29.56C190.289 29.1333 191.316 28.4933 192.089 27.64C192.863 26.7867 193.516 25.52 194.049 23.84H195.729C195.009 26.2133 194.036 27.96 192.809 29.08C191.583 30.1733 190.196 30.92 188.649 31.32L188.049 34.2C187.516 36.7867 186.596 38.56 185.289 39.52C183.983 40.5067 182.503 41 180.849 41ZM179.929 37.88C180.383 37.88 180.823 37.5733 181.249 36.96C181.676 36.3467 182.009 35.4667 182.249 34.32L182.489 33.16C179.876 34.12 178.569 35.2533 178.569 36.56C178.569 36.9067 178.689 37.2133 178.929 37.48C179.169 37.7467 179.503 37.88 179.929 37.88ZM198.623 31.24C197.343 31.24 196.262 31 195.382 30.52C194.502 30.0133 193.849 29.3733 193.422 28.6C192.996 27.8 192.782 26.9733 192.782 26.12C192.782 25.24 192.996 24.48 193.422 23.84C193.822 23.1733 194.316 22.6933 194.903 22.4C195.943 20.5333 196.849 18.6533 197.623 16.76C198.396 14.84 199.129 12.7733 199.823 10.56L205.743 9.76C205.876 13.1733 206.103 16.8667 206.423 20.84C206.556 22.44 206.623 23.6 206.623 24.32C206.623 24.9333 206.569 25.44 206.463 25.84C207.716 25.12 208.676 24.4533 209.343 23.84H211.023C209.316 25.8133 207.276 27.48 204.903 28.84C204.129 29.6667 203.169 30.28 202.023 30.68C200.903 31.0533 199.769 31.24 198.623 31.24ZM197.343 28.08C198.329 28.08 199.156 27.7867 199.823 27.2C200.489 26.6133 200.823 25.6667 200.823 24.36C200.823 23.56 200.743 22.44 200.583 21C200.316 17.96 200.143 15.92 200.063 14.88C199.423 16.9867 198.343 19.5067 196.823 22.44C197.436 22.76 197.743 23.2267 197.743 23.84C197.743 24.3467 197.569 24.8 197.223 25.2C196.903 25.6 196.489 25.8 195.983 25.8C195.423 25.8 195.063 25.6267 194.903 25.28C194.903 26.24 195.089 26.9467 195.463 27.4C195.863 27.8533 196.489 28.08 197.343 28.08ZM213.296 31.24C212.016 31.24 210.976 30.84 210.176 30.04C209.403 29.24 209.016 28.04 209.016 26.44C209.016 25.7733 209.123 24.9067 209.336 23.84L211.736 12.6H210.416L210.736 11H212.056L213.256 5.48L219.176 4.68L217.816 11H220.216L219.896 12.6H217.496L214.936 24.6C214.829 25 214.776 25.4267 214.776 25.88C214.776 26.4133 214.896 26.8 215.136 27.04C215.403 27.2533 215.829 27.36 216.416 27.36C217.189 27.36 217.909 27.04 218.576 26.4C219.243 25.7333 219.723 24.88 220.016 23.84H221.696C220.709 26.72 219.443 28.68 217.896 29.72C216.349 30.7333 214.816 31.24 213.296 31.24ZM225.72 31.24C223.747 31.24 222.213 30.7333 221.12 29.72C220.027 28.68 219.48 27.0667 219.48 24.88C219.48 23.04 219.84 21.0133 220.56 18.8C221.28 16.5867 222.453 14.68 224.08 13.08C225.707 11.4533 227.773 10.64 230.28 10.64C233.213 10.64 234.68 11.92 234.68 14.48C234.68 15.9733 234.253 17.3467 233.4 18.6C232.547 19.8533 231.413 20.8667 230 21.64C228.587 22.3867 227.08 22.8133 225.48 22.92C225.427 23.72 225.4 24.2533 225.4 24.52C225.4 25.8267 225.627 26.72 226.08 27.2C226.533 27.6533 227.267 27.88 228.28 27.88C229.72 27.88 230.947 27.5467 231.96 26.88C233 26.2133 234.133 25.2 235.36 23.84H236.72C233.76 28.7733 230.093 31.24 225.72 31.24ZM225.8 21C226.787 20.9467 227.72 20.6 228.6 19.96C229.507 19.32 230.227 18.5067 230.76 17.52C231.32 16.5333 231.6 15.4933 231.6 14.4C231.6 13.3067 231.267 12.76 230.6 12.76C229.64 12.76 228.693 13.6 227.76 15.28C226.853 16.96 226.2 18.8667 225.8 21ZM258.992 31.24C257.578 31.24 256.552 30.8133 255.912 29.96C255.272 29.1067 254.952 28.0267 254.952 26.72C254.952 26.16 255.018 25.5333 255.152 24.84C255.285 24.12 255.418 23.4267 255.552 22.76C255.712 22.0933 255.818 21.6667 255.872 21.48C256.085 20.5467 256.285 19.6267 256.472 18.72C256.658 17.8133 256.752 17.08 256.752 16.52C256.752 15.16 256.272 14.48 255.312 14.48C254.618 14.48 254.005 14.8267 253.472 15.52C252.938 16.1867 252.512 17.0667 252.192 18.16L249.472 31H243.712L246.632 17.2C246.712 16.88 246.752 16.5467 246.752 16.2C246.752 15.0267 246.352 14.44 245.552 14.44C244.805 14.44 244.152 14.7867 243.592 15.48C243.058 16.1467 242.632 17.04 242.312 18.16L239.592 31H233.832L238.072 11H243.832L243.392 13.08C244.752 11.56 246.378 10.8 248.272 10.8C250.618 10.8 251.992 11.9467 252.392 14.24C253.858 11.9733 255.712 10.84 257.952 10.84C259.312 10.84 260.392 11.2133 261.192 11.96C261.992 12.7067 262.392 13.84 262.392 15.36C262.392 16.1333 262.298 17 262.112 17.96C261.925 18.8933 261.658 20.04 261.312 21.4C261.098 22.2267 260.898 23.04 260.712 23.84C260.552 24.6133 260.472 25.2267 260.472 25.68C260.472 26.2133 260.592 26.6267 260.832 26.92C261.072 27.2133 261.485 27.36 262.072 27.36C262.712 27.36 263.152 27.28 263.392 27.12C263.232 28.48 262.738 29.5067 261.912 30.2C261.112 30.8933 260.138 31.24 258.992 31.24Z" fill="#B8DBD9"/>
</svg>
